<svg width="22" height="22" viewBox="0 0 22 22" fill="none" xmlns="http://www.w3.org/2000/svg">
<g clip-path="url(#clip0_2269_5304)">
<path d="M2.83302 18.1227H2.26758L2.53914 17.6602H3.32778V20.9325H2.83426V18.1227H2.83302Z" fill="#F2F2F2"/>
<path d="M5.88879 17.543L6.25087 17.8145L5.46843 18.8784C5.51059 18.8735 5.54655 18.8685 5.57631 18.8661C5.60607 18.8636 5.62963 18.8623 5.64575 18.8623C5.91111 18.8623 6.14051 18.964 6.33395 19.1674C6.52615 19.3682 6.62163 19.61 6.62163 19.8915C6.62163 20.1916 6.51375 20.4483 6.29923 20.6628C6.08595 20.8761 5.82927 20.9827 5.53043 20.9827C5.23159 20.9827 4.97367 20.8773 4.75047 20.6665C4.53099 20.4557 4.42188 20.2065 4.42188 19.9188C4.42188 19.6609 4.52851 19.3869 4.74179 19.0967L5.88631 17.543H5.88879ZM6.14299 19.9225C6.14299 19.7489 6.08347 19.6014 5.96319 19.4823C5.84291 19.3633 5.69535 19.3001 5.52424 19.3001C5.35312 19.3001 5.20555 19.3596 5.08527 19.4798C4.96499 19.6001 4.90547 19.7452 4.90547 19.9163C4.90547 20.0875 4.96499 20.2325 5.08527 20.3528C5.20555 20.4731 5.35187 20.5326 5.52547 20.5326C5.69907 20.5326 5.83919 20.4731 5.95947 20.3528C6.07975 20.2325 6.14175 20.0874 6.14175 19.9225H6.14299Z" fill="#F2F2F2"/>
<path d="M7.61914 18.8617H8.0953V19.0527C8.18706 18.9572 8.26518 18.8915 8.3309 18.858C8.40034 18.8233 8.48714 18.8047 8.5913 18.8047C8.82442 18.8047 9.00918 18.9064 9.14434 19.1097C9.29438 18.9064 9.4965 18.8047 9.75318 18.8047C10.2182 18.8047 10.4501 19.0862 10.4501 19.6504V20.9263H9.97142V19.7793C9.97142 19.5822 9.94786 19.442 9.8995 19.3602C9.8499 19.2771 9.7693 19.235 9.65522 19.235C9.52378 19.235 9.4283 19.2846 9.36754 19.3838C9.30802 19.483 9.27702 19.6417 9.27702 19.8612V20.9276H8.79838V19.788C8.79838 19.421 8.69298 19.2374 8.48094 19.2374C8.34702 19.2374 8.24906 19.2883 8.18706 19.3875C8.12506 19.4879 8.0953 19.6454 8.0953 19.8624V20.9288H7.61914V18.8642V18.8617Z" fill="#F2F2F2"/>
<path d="M13.386 20.0062H11.9067C11.9191 20.1761 11.9749 20.3113 12.0716 20.4105C12.1696 20.5097 12.2936 20.5593 12.4461 20.5593C12.5651 20.5593 12.6631 20.5308 12.7412 20.475C12.8181 20.4179 12.9049 20.3138 13.0016 20.1612L13.4046 20.3857C13.3426 20.4911 13.2769 20.5828 13.2074 20.6585C13.138 20.7341 13.0636 20.7961 12.9855 20.8445C12.9061 20.8928 12.8206 20.9288 12.7288 20.9511C12.637 20.9734 12.5378 20.9846 12.43 20.9846C12.1224 20.9846 11.8744 20.8854 11.6884 20.6882C11.5024 20.4886 11.4082 20.2245 11.4082 19.8959C11.4082 19.5673 11.4987 19.3056 11.6798 19.1035C11.862 18.9039 12.1038 18.8047 12.4039 18.8047C12.704 18.8047 12.9483 18.9014 13.1244 19.0948C13.2992 19.287 13.3872 19.5536 13.3872 19.8934L13.3848 20.0062H13.386ZM12.8962 19.6169C12.8292 19.3627 12.6693 19.235 12.4151 19.235C12.3568 19.235 12.3022 19.2436 12.2514 19.261C12.2006 19.2784 12.1547 19.3044 12.1125 19.3379C12.0704 19.3714 12.0356 19.411 12.0059 19.4582C11.9761 19.5053 11.9538 19.5574 11.9377 19.6169H12.895H12.8962Z" fill="#F2F2F2"/>
<path d="M14.3652 18.8617H14.8414V19.0527C14.9332 18.9572 15.0113 18.8915 15.077 18.858C15.1464 18.8233 15.2332 18.8047 15.3374 18.8047C15.5705 18.8047 15.7553 18.9064 15.8904 19.1097C16.0405 18.9064 16.2426 18.8047 16.4993 18.8047C16.9643 18.8047 17.1962 19.0862 17.1962 19.6504V20.9263H16.7175V19.7793C16.7175 19.5822 16.694 19.442 16.6456 19.3602C16.596 19.2771 16.5154 19.235 16.4013 19.235C16.2699 19.235 16.1744 19.2846 16.1136 19.3838C16.0541 19.483 16.0231 19.6417 16.0231 19.8612V20.9276H15.5445V19.788C15.5445 19.421 15.4391 19.2374 15.227 19.2374C15.0931 19.2374 14.9952 19.2883 14.9332 19.3875C14.8712 19.4879 14.8414 19.6454 14.8414 19.8624V20.9288H14.3652V18.8642V18.8617Z" fill="#F2F2F2"/>
<path d="M18.1575 19.8785C18.1575 19.5809 18.2641 19.3267 18.4774 19.1184C18.6907 18.9088 18.9511 18.8047 19.2574 18.8047C19.5637 18.8047 19.8265 18.9101 20.0411 19.1209C20.2531 19.3317 20.3585 19.5896 20.3585 19.8959C20.3585 20.2022 20.2519 20.465 20.0386 20.6734C19.8241 20.8804 19.5599 20.9846 19.2475 20.9846C18.935 20.9846 18.6783 20.8792 18.47 20.6672C18.2604 20.4576 18.1562 20.196 18.1562 19.8785H18.1575ZM18.6448 19.8872C18.6448 20.093 18.6994 20.2567 18.8097 20.377C18.9226 20.4985 19.0714 20.5593 19.2574 20.5593C19.4434 20.5593 19.5934 20.4998 19.705 20.3795C19.8166 20.2592 19.8724 20.0992 19.8724 19.8984C19.8724 19.6975 19.8166 19.5375 19.705 19.4172C19.5922 19.2957 19.4434 19.235 19.2574 19.235C19.0714 19.235 18.9275 19.2957 18.8147 19.4172C18.7019 19.5388 18.6448 19.6962 18.6448 19.8872Z" fill="#F2F2F2"/>
<path d="M12.7164 6.42231L13.1392 4.02539H10.8278L10.4062 6.42231H12.7164Z" fill="#E0E0E0"/>
<path d="M17.3271 6.42231V4.02539H15.6221L15.1992 6.42231H17.3271Z" fill="#E0E0E0"/>
<path d="M6.04297 4.02539V6.42231H7.92901L8.35061 4.02539H6.04297Z" fill="#E0E0E0"/>
<path d="M16.5851 11.6957V9.29883H14.6892L14.2676 11.6957H16.5851Z" fill="#E0E0E0"/>
<path d="M5.30273 9.29883V11.6957H6.99781L7.42065 9.29883H5.30273Z" fill="#E0E0E0"/>
<path d="M9.8994 9.29883L9.47656 11.6957H11.7879L12.2095 9.29883H9.8994Z" fill="#E0E0E0"/>
<path d="M12.6416 15.4355C13.3778 15.4355 13.9746 14.8387 13.9746 14.1025C13.9746 13.3663 13.3778 12.7695 12.6416 12.7695C11.9054 12.7695 11.3086 13.3663 11.3086 14.1025C11.3086 14.8387 11.9054 15.4355 12.6416 15.4355Z" fill="#E0E0E0"/>
<path d="M9.97558 2.95311C10.7118 2.95311 11.3086 2.35631 11.3086 1.62011C11.3086 0.883914 10.7118 0.287109 9.97558 0.287109C9.23938 0.287109 8.64258 0.883914 8.64258 1.62011C8.64258 2.35631 9.23938 2.95311 9.97558 2.95311Z" fill="#E0E0E0"/>
<path d="M6.33789 15.4359H8.81789L9.47757 11.6973H6.99757L6.33789 15.4359Z" fill="#E0E0E0"/>
<path d="M10.4071 6.42578H7.92708L7.41992 9.30134H9.89992L10.4071 6.42578Z" fill="#E0E0E0"/>
<path d="M10.8293 4.02539H8.34933L7.92773 6.42231H10.4077L10.8293 4.02539Z" fill="#F2F2F2"/>
<path d="M10.8293 4.02539H8.34933L7.92773 6.42231H10.4077L10.8293 4.02539Z" fill="#F2F2F2"/>
<path d="M7.42089 9.29883L6.99805 11.6957H9.47805L9.90089 9.29883H7.42089Z" fill="#F2F2F2"/>
<path d="M7.42089 9.29883L6.99805 11.6957H9.47805L9.90089 9.29883H7.42089Z" fill="#F2F2F2"/>
<path d="M12.7181 6.42578L12.2109 9.30134H14.6909L15.1981 6.42578H12.7181Z" fill="#E0E0E0"/>
<path d="M16.2803 0.287109H13.8003L13.1406 4.02571H15.6206L16.2803 0.287109Z" fill="#E3E3E3"/>
<path d="M15.1988 6.42231L15.6216 4.02539H13.1416L12.7188 6.42231H15.1988Z" fill="#F2F2F2"/>
<path d="M15.1988 6.42231L15.6216 4.02539H13.1416L12.7188 6.42231H15.1988Z" fill="#F2F2F2"/>
<path d="M11.7891 11.6957H14.2691L14.6907 9.29883H12.2107L11.7891 11.6957Z" fill="#F2F2F2"/>
<path d="M11.7891 11.6957H14.2691L14.6907 9.29883H12.2107L11.7891 11.6957Z" fill="#F2F2F2"/>
</g>
<defs>
<clipPath id="clip0_2269_5304">
<rect width="21.08" height="21.08" fill="white" transform="translate(0.771484 0.0820312)"/>
</clipPath>
</defs>
</svg>
