<svg width="180" height="12" viewBox="0 0 180 12" fill="none" xmlns="http://www.w3.org/2000/svg">
<path d="M12.1113 9.13477H15.4001V8.39263H14.2752V3.54137H13.5956C13.2596 3.74448 12.8847 3.8851 12.3378 3.98666V4.55693H13.3768V8.39263H12.1113V9.13477ZM16.3166 9.13477H20.0351V8.36919H18.5743C18.2852 8.36919 17.9259 8.40044 17.629 8.43169C18.8242 7.17395 19.7617 6.14277 19.7617 5.12721C19.7617 4.10384 19.082 3.43982 18.0274 3.43982C17.2775 3.43982 16.7697 3.76011 16.2697 4.29133L16.7853 4.79129C17.09 4.44757 17.4649 4.15852 17.918 4.15852C18.5586 4.15852 18.8867 4.55693 18.8867 5.16627C18.8867 6.04903 17.918 7.04115 16.3166 8.61136V9.13477ZM22.5999 9.24413C23.6623 9.24413 24.5294 8.65042 24.5294 7.63486C24.5294 6.88491 24.006 6.40057 23.342 6.2287V6.19745C23.9513 5.96309 24.3341 5.53343 24.3341 4.89285C24.3341 3.96322 23.6076 3.43982 22.5764 3.43982C21.9124 3.43982 21.3812 3.72886 20.9203 4.1429L21.3968 4.70536C21.7249 4.37726 22.0999 4.15852 22.5374 4.15852C23.092 4.15852 23.4201 4.46319 23.4201 4.95535C23.4201 5.49437 23.0452 5.90841 21.9202 5.90841V6.58024C23.2092 6.58024 23.6154 6.97865 23.6154 7.58799C23.6154 8.15827 23.1701 8.50199 22.5296 8.50199C21.928 8.50199 21.5062 8.21295 21.1703 7.86922L20.725 8.44731C21.1156 8.88478 21.7015 9.24413 22.5999 9.24413ZM27.6879 9.13477H28.5316V3.54137H27.4848L25.2037 7.04896V7.6583H29.2659V6.95522H26.1099L27.2348 5.26001C27.3989 4.96316 27.5551 4.69755 27.6957 4.41632H27.7348C27.7114 4.7288 27.6879 5.23658 27.6879 5.54906V9.13477ZM31.6745 9.24413C32.6744 9.24413 33.6119 8.54887 33.6119 7.33019C33.6119 6.12715 32.8229 5.58031 31.862 5.58031C31.5495 5.58031 31.3151 5.65061 31.073 5.77561L31.2058 4.30695H33.3384V3.54137H30.4168L30.2449 6.27557L30.6902 6.56462C31.0261 6.34588 31.2448 6.23651 31.6042 6.23651C32.2604 6.23651 32.6979 6.65055 32.6979 7.35363C32.6979 8.07233 32.2135 8.50199 31.5651 8.50199C30.9636 8.50199 30.5417 8.21295 30.2215 7.88485L29.784 8.47075C30.198 8.87697 30.7683 9.24413 31.6745 9.24413ZM34.9345 9.13477H35.8329V4.29914C35.8329 3.77573 36.0282 3.52575 36.4032 3.52575C36.5594 3.52575 36.7235 3.557 36.8797 3.63512L37.0594 2.94766C36.8641 2.86954 36.5907 2.80704 36.2938 2.80704C35.3408 2.80704 34.9345 3.42419 34.9345 4.29914V9.13477ZM34.3486 5.55687H36.7079V4.83817H34.9814L34.3486 4.88504V5.55687ZM37.5649 9.13477H38.471V6.46306C38.7367 5.78342 39.1585 5.53343 39.5022 5.53343C39.6819 5.53343 39.7913 5.55687 39.9397 5.60374L40.0959 4.82254C39.9631 4.76005 39.8303 4.7288 39.6194 4.7288C39.1585 4.7288 38.7054 5.0569 38.4007 5.61155H38.3773L38.2992 4.83817H37.5649V9.13477ZM40.8395 9.13477H41.7457V4.83817H40.8395V9.13477ZM41.2926 4.03353C41.6207 4.03353 41.855 3.82261 41.855 3.4945C41.855 3.17421 41.6207 2.96329 41.2926 2.96329C40.9567 2.96329 40.7379 3.17421 40.7379 3.4945C40.7379 3.82261 40.9567 4.03353 41.2926 4.03353ZM44.9649 9.24413C45.5274 9.24413 46.0195 9.05665 46.4179 8.79104L46.1054 8.21295C45.7852 8.41606 45.4649 8.53324 45.0821 8.53324C44.3399 8.53324 43.8243 8.0489 43.754 7.22864H46.5429C46.5664 7.11927 46.582 6.94741 46.582 6.76773C46.582 5.54906 45.9648 4.7288 44.8321 4.7288C43.8322 4.7288 42.8713 5.59593 42.8713 6.99428C42.8713 8.40825 43.7931 9.24413 44.9649 9.24413ZM43.7384 6.60368C43.8322 5.85373 44.3087 5.43969 44.8477 5.43969C45.4727 5.43969 45.8008 5.86154 45.8008 6.60368H43.7384ZM47.671 9.13477H48.5772V6.08809C48.9522 5.71311 49.2256 5.51 49.624 5.51C50.124 5.51 50.3427 5.79904 50.3427 6.54899V9.13477H51.2489V6.43181C51.2489 5.34595 50.8427 4.7288 49.9287 4.7288C49.3428 4.7288 48.8975 5.04909 48.5069 5.43969H48.4835L48.4054 4.83817H47.671V9.13477ZM54.1083 9.24413C54.5926 9.24413 55.0379 8.98634 55.366 8.65823H55.3895L55.4598 9.13477H56.2019V2.91641H55.2957V4.50225L55.3348 5.21314C54.991 4.91629 54.6708 4.7288 54.1786 4.7288C53.2255 4.7288 52.3428 5.59593 52.3428 6.99428C52.3428 8.41606 53.0302 9.24413 54.1083 9.24413ZM54.327 8.49418C53.6552 8.49418 53.2724 7.95515 53.2724 6.97865C53.2724 6.05684 53.7568 5.47875 54.3583 5.47875C54.6786 5.47875 54.9832 5.58812 55.2957 5.87716V7.97078C54.991 8.33013 54.6786 8.49418 54.327 8.49418ZM57.6228 10.8768H58.529V9.48631L58.4977 8.75979C58.8571 9.07227 59.2477 9.24413 59.6305 9.24413C60.5992 9.24413 61.4819 8.39263 61.4819 6.92397C61.4819 5.59593 60.8648 4.7288 59.7789 4.7288C59.2945 4.7288 58.8336 4.99441 58.4587 5.3147H58.4352L58.3571 4.83817H57.6228V10.8768ZM59.4586 8.49418C59.193 8.49418 58.8649 8.39263 58.529 8.10358V6.00215C58.8883 5.65843 59.2086 5.47875 59.5367 5.47875C60.2554 5.47875 60.5523 6.0334 60.5523 6.93178C60.5523 7.93953 60.0757 8.49418 59.4586 8.49418ZM63.4845 9.24413C64.0001 9.24413 64.461 8.98634 64.8516 8.65042H64.8829L64.9532 9.13477H65.6953V6.55681C65.6953 5.40844 65.2032 4.7288 64.1329 4.7288C63.4455 4.7288 62.8361 5.01784 62.3987 5.29126L62.7346 5.90841C63.0939 5.67405 63.5236 5.46313 63.9767 5.46313C64.6016 5.46313 64.7813 5.9006 64.7891 6.40057C63.008 6.59587 62.2268 7.0724 62.2268 7.99421C62.2268 8.75198 62.7502 9.24413 63.4845 9.24413ZM63.7658 8.52543C63.383 8.52543 63.0939 8.35357 63.0939 7.93172C63.0939 7.44737 63.5158 7.12708 64.7891 6.97865V8.02546C64.4376 8.35357 64.1407 8.52543 63.7658 8.52543ZM67.0405 9.13477H67.9467V6.46306C68.2123 5.78342 68.6342 5.53343 68.9779 5.53343C69.1576 5.53343 69.2669 5.55687 69.4154 5.60374L69.5716 4.82254C69.4388 4.76005 69.306 4.7288 69.0951 4.7288C68.6342 4.7288 68.1811 5.0569 67.8764 5.61155H67.853L67.7748 4.83817H67.0405V9.13477ZM70.3151 9.13477H71.2057V8.02546L71.9166 7.18958L73.0806 9.13477H74.0649L72.4478 6.58805L73.9009 4.83817H72.9009L71.237 6.91616H71.2057V2.91641H70.3151V9.13477ZM77.8162 10.5487C78.4333 10.5487 78.988 10.4081 79.5036 10.1113L79.2848 9.59567C78.9021 9.8066 78.4021 9.97065 77.8865 9.97065C76.4335 9.97065 75.2851 9.04102 75.2851 7.32238C75.2851 5.29126 76.7928 3.97103 78.3396 3.97103C79.9723 3.97103 80.7613 5.03347 80.7613 6.40838C80.7613 7.48643 80.1676 8.15045 79.6208 8.15045C79.1677 8.15045 79.0114 7.84579 79.1677 7.2052L79.527 5.39282H78.9567L78.8474 5.75217H78.8317C78.6677 5.45531 78.4333 5.32251 78.1365 5.32251C77.1131 5.32251 76.4178 6.41619 76.4178 7.39269C76.4178 8.19733 76.8787 8.66605 77.5037 8.66605C77.8865 8.66605 78.3005 8.40825 78.574 8.07233H78.5974C78.6599 8.50981 79.0427 8.73635 79.5348 8.73635C80.3707 8.73635 81.3628 7.93172 81.3628 6.37713C81.3628 4.61162 80.2223 3.39295 78.4099 3.39295C76.3866 3.39295 74.6445 4.95535 74.6445 7.34582C74.6445 9.46287 76.0897 10.5487 77.8162 10.5487ZM77.6912 8.07233C77.3553 8.07233 77.1209 7.8536 77.1209 7.34582C77.1209 6.72086 77.5193 5.93185 78.1521 5.93185C78.3787 5.93185 78.5271 6.01778 78.6677 6.25995L78.4333 7.58799C78.1521 7.93172 77.9177 8.07233 77.6912 8.07233ZM84.032 11.0643C85.4069 11.0643 86.2819 10.3925 86.2819 9.56443C86.2819 8.8301 85.7507 8.51762 84.7351 8.51762H83.9383C83.3993 8.51762 83.2196 8.35357 83.2196 8.10358C83.2196 7.89266 83.3211 7.76767 83.4539 7.65049C83.6492 7.73642 83.868 7.77548 84.0555 7.77548C84.9617 7.77548 85.6726 7.24426 85.6726 6.29901C85.6726 5.97091 85.5554 5.68967 85.3913 5.51781H86.2038V4.83817H84.6882C84.5242 4.77567 84.3055 4.7288 84.0555 4.7288C83.1727 4.7288 82.3915 5.29907 82.3915 6.27557C82.3915 6.78335 82.6727 7.19739 82.9618 7.41613V7.44737C82.7196 7.61924 82.4853 7.90828 82.4853 8.2442C82.4853 8.59574 82.6493 8.82229 82.8759 8.9629V9.00196C82.4774 9.23632 82.2509 9.57224 82.2509 9.9394C82.2509 10.6815 83.0009 11.0643 84.032 11.0643ZM84.0555 7.19739C83.618 7.19739 83.2508 6.84585 83.2508 6.27557C83.2508 5.69749 83.6102 5.36938 84.0555 5.36938C84.5086 5.36938 84.8679 5.69749 84.8679 6.27557C84.8679 6.84585 84.5008 7.19739 84.0555 7.19739ZM84.1648 10.4706C83.4539 10.4706 83.0165 10.2206 83.0165 9.8066C83.0165 9.58786 83.1258 9.36913 83.3836 9.17383C83.5633 9.2207 83.7508 9.23632 83.9539 9.23632H84.6023C85.1257 9.23632 85.4069 9.3535 85.4069 9.71285C85.4069 10.1035 84.9148 10.4706 84.1648 10.4706ZM87.15 9.13477H88.0562V6.08809C88.3999 5.69749 88.728 5.51 89.0171 5.51C89.5092 5.51 89.7358 5.79904 89.7358 6.54899V9.13477H90.6342V6.08809C90.9935 5.69749 91.306 5.51 91.6028 5.51C92.0872 5.51 92.3137 5.79904 92.3137 6.54899V9.13477H93.2121V6.43181C93.2121 5.34595 92.7981 4.7288 91.8997 4.7288C91.3607 4.7288 90.9232 5.07253 90.4935 5.51781C90.3139 5.02565 89.9545 4.7288 89.3139 4.7288C88.7827 4.7288 88.3531 5.04909 87.9859 5.43969H87.9625L87.8843 4.83817H87.15V9.13477ZM95.6132 9.24413C96.1288 9.24413 96.5897 8.98634 96.9803 8.65042H97.0116L97.0819 9.13477H97.824V6.55681C97.824 5.40844 97.3318 4.7288 96.2616 4.7288C95.5741 4.7288 94.9648 5.01784 94.5273 5.29126L94.8633 5.90841C95.2226 5.67405 95.6523 5.46313 96.1054 5.46313C96.7303 5.46313 96.91 5.9006 96.9178 6.40057C95.1367 6.59587 94.3555 7.0724 94.3555 7.99421C94.3555 8.75198 94.8789 9.24413 95.6132 9.24413ZM95.8944 8.52543C95.5116 8.52543 95.2226 8.35357 95.2226 7.93172C95.2226 7.44737 95.6445 7.12708 96.9178 6.97865V8.02546C96.5663 8.35357 96.2694 8.52543 95.8944 8.52543ZM99.1692 9.13477H100.075V4.83817H99.1692V9.13477ZM99.6223 4.03353C99.9504 4.03353 100.185 3.82261 100.185 3.4945C100.185 3.17421 99.9504 2.96329 99.6223 2.96329C99.2864 2.96329 99.0676 3.17421 99.0676 3.4945C99.0676 3.82261 99.2864 4.03353 99.6223 4.03353ZM102.396 9.24413C102.623 9.24413 102.763 9.20507 102.881 9.16601L102.763 8.48637C102.685 8.50199 102.654 8.50199 102.615 8.50199C102.506 8.50199 102.404 8.41606 102.404 8.17389V2.91641H101.498V8.12702C101.498 8.82229 101.74 9.24413 102.396 9.24413ZM104.395 9.24413C104.731 9.24413 104.996 8.97853 104.996 8.61136C104.996 8.23639 104.731 7.97859 104.395 7.97859C104.051 7.97859 103.793 8.23639 103.793 8.61136C103.793 8.97853 104.051 9.24413 104.395 9.24413ZM107.928 9.24413C108.428 9.24413 108.936 9.05665 109.326 8.71292L108.959 8.11139C108.701 8.33013 108.381 8.50199 108.022 8.50199C107.303 8.50199 106.811 7.90047 106.811 6.99428C106.811 6.08027 107.319 5.47875 108.053 5.47875C108.342 5.47875 108.584 5.60374 108.818 5.80685L109.256 5.22877C108.951 4.94753 108.553 4.7288 108.006 4.7288C106.873 4.7288 105.881 5.55687 105.881 6.99428C105.881 8.41606 106.772 9.24413 107.928 9.24413ZM111.782 9.24413C112.844 9.24413 113.805 8.41606 113.805 6.99428C113.805 5.55687 112.844 4.7288 111.782 4.7288C110.712 4.7288 109.758 5.55687 109.758 6.99428C109.758 8.41606 110.712 9.24413 111.782 9.24413ZM111.782 8.50199C111.102 8.50199 110.688 7.90047 110.688 6.99428C110.688 6.08027 111.102 5.47875 111.782 5.47875C112.454 5.47875 112.883 6.08027 112.883 6.99428C112.883 7.90047 112.454 8.50199 111.782 8.50199ZM114.94 9.13477H115.846V6.08809C116.19 5.69749 116.518 5.51 116.807 5.51C117.299 5.51 117.525 5.79904 117.525 6.54899V9.13477H118.424V6.08809C118.783 5.69749 119.096 5.51 119.393 5.51C119.877 5.51 120.103 5.79904 120.103 6.54899V9.13477H121.002V6.43181C121.002 5.34595 120.588 4.7288 119.689 4.7288C119.15 4.7288 118.713 5.07253 118.283 5.51781C118.104 5.02565 117.744 4.7288 117.104 4.7288C116.572 4.7288 116.143 5.04909 115.776 5.43969H115.752L115.674 4.83817H114.94V9.13477Z" fill="#00A8A6"/>
<path d="M146.281 9.13477H149.57V8.39263H148.445V3.54137H147.765C147.43 3.74448 147.055 3.8851 146.508 3.98666V4.55693H147.547V8.39263H146.281V9.13477ZM152.541 9.24413C153.471 9.24413 154.26 8.52543 154.26 7.42394C154.26 6.26776 153.603 5.69749 152.635 5.69749C152.205 5.69749 151.682 5.97091 151.346 6.424L151.377 7.08802C151.729 6.54899 152.135 6.35369 152.479 6.35369C153.088 6.35369 153.424 6.73648 153.424 7.42394C153.424 8.12702 153.033 8.54887 152.525 8.54887C151.83 8.54887 151.393 7.90828 151.393 6.52556C151.393 4.76786 152.018 4.18196 152.768 4.18196C153.111 4.18196 153.463 4.35382 153.674 4.60381L154.166 4.04915C153.838 3.71324 153.369 3.43982 152.721 3.43982C151.588 3.43982 150.549 4.32257 150.549 6.52556C150.549 8.377 151.44 9.24413 152.541 9.24413ZM155.356 9.13477H156.262V6.08809C156.606 5.69749 156.934 5.51 157.223 5.51C157.715 5.51 157.942 5.79904 157.942 6.54899V9.13477H158.84V6.08809C159.199 5.69749 159.512 5.51 159.809 5.51C160.293 5.51 160.52 5.79904 160.52 6.54899V9.13477H161.418V6.43181C161.418 5.34595 161.004 4.7288 160.106 4.7288C159.566 4.7288 159.129 5.07253 158.699 5.51781C158.52 5.02565 158.16 4.7288 157.52 4.7288C156.989 4.7288 156.559 5.04909 156.192 5.43969H156.168L156.09 4.83817H155.356V9.13477ZM164.6 9.24413C165.163 9.24413 165.655 9.05665 166.053 8.79104L165.741 8.21295C165.42 8.41606 165.1 8.53324 164.717 8.53324C163.975 8.53324 163.46 8.0489 163.389 7.22864H166.178C166.202 7.11927 166.217 6.94741 166.217 6.76773C166.217 5.54906 165.6 4.7288 164.467 4.7288C163.467 4.7288 162.507 5.59593 162.507 6.99428C162.507 8.40825 163.428 9.24413 164.6 9.24413ZM163.374 6.60368C163.467 5.85373 163.944 5.43969 164.483 5.43969C165.108 5.43969 165.436 5.86154 165.436 6.60368H163.374ZM167.306 9.13477H168.213V6.08809C168.556 5.69749 168.884 5.51 169.173 5.51C169.666 5.51 169.892 5.79904 169.892 6.54899V9.13477H170.791V6.08809C171.15 5.69749 171.462 5.51 171.759 5.51C172.244 5.51 172.47 5.79904 172.47 6.54899V9.13477H173.368V6.43181C173.368 5.34595 172.954 4.7288 172.056 4.7288C171.517 4.7288 171.08 5.07253 170.65 5.51781C170.47 5.02565 170.111 4.7288 169.47 4.7288C168.939 4.7288 168.509 5.04909 168.142 5.43969H168.119L168.041 4.83817H167.306V9.13477ZM176.48 9.24413C177.543 9.24413 178.504 8.41606 178.504 6.99428C178.504 5.55687 177.543 4.7288 176.48 4.7288C175.41 4.7288 174.457 5.55687 174.457 6.99428C174.457 8.41606 175.41 9.24413 176.48 9.24413ZM176.48 8.50199C175.801 8.50199 175.387 7.90047 175.387 6.99428C175.387 6.08027 175.801 5.47875 176.48 5.47875C177.152 5.47875 177.582 6.08027 177.582 6.99428C177.582 7.90047 177.152 8.50199 176.48 8.50199Z" fill="#00A8A6"/>
<g clip-path="url(#clip0_2318_5508)">
<path d="M9.54428 10.0135H1.93895C1.68682 10.0135 1.44501 9.91338 1.26673 9.73509C1.08844 9.55681 0.988281 9.315 0.988281 9.06287V3.31752C0.998944 3.07262 1.10379 2.84131 1.28093 2.67187C1.45808 2.50243 1.69382 2.40797 1.93895 2.4082H9.54428C9.79641 2.4082 10.0382 2.50836 10.2165 2.68665C10.3948 2.86493 10.4949 3.10674 10.4949 3.35887V9.06287C10.4949 9.315 10.3948 9.55681 10.2165 9.73509C10.0382 9.91338 9.79641 10.0135 9.54428 10.0135ZM1.93895 4.24679V9.06287H9.54428V4.24679L5.74161 6.78127L1.93895 4.24679ZM2.31921 3.35887L5.74161 5.64047L9.16402 3.35887H2.31921Z" fill="#00A8A6"/>
</g>
<g clip-path="url(#clip1_2318_5508)">
<path d="M141.848 7.03813C141.485 7.03424 141.128 6.94254 140.808 6.77085L140.808 6.77083L140.806 6.77003L140.728 6.7308L140.715 6.72425H140.7H139.964H139.902V6.78625V7.66588H139.023H138.961V7.72788V8.6075H138.081H138.019V8.6695V9.54913H137.201V8.20452L139.664 5.73243L139.781 5.6254L139.806 5.6025L139.8 5.56911L139.771 5.40317C139.771 5.40311 139.771 5.40305 139.771 5.40299C139.739 5.21351 139.713 5.05033 139.713 4.903C139.713 3.72725 140.672 2.76788 141.848 2.76788V2.70588C143.058 2.70605 144.045 3.69312 144.045 4.903C144.045 6.11299 143.058 7.10013 141.848 7.10013M141.848 7.03813C141.848 7.03813 141.848 7.03813 141.848 7.03813L141.848 7.10013M141.848 7.03813C141.848 7.03813 141.848 7.03813 141.848 7.03813V7.10013M141.848 7.03813L141.848 7.10013M138.771 10.2389V9.35925H139.65H139.712V9.29725V8.41762H140.592H140.654V8.35563V7.52129C141.011 7.68331 141.419 7.78988 141.848 7.78988C143.434 7.78988 144.734 6.48935 144.734 4.903C144.734 3.31665 143.434 2.01613 141.848 2.01613C140.261 2.01613 138.961 3.31665 138.961 4.903C138.961 5.05005 138.982 5.18226 139.002 5.30765C139.003 5.31603 139.004 5.32438 139.006 5.33271L136.556 7.77183L136.556 7.77175L136.553 7.7745L136.465 7.87305L136.45 7.89069V7.91432V10.2389V10.3009H136.512H138.709H138.771V10.2389ZM142.477 3.58552C142.385 3.58344 142.294 3.59973 142.208 3.63344C142.123 3.66715 142.045 3.7176 141.979 3.78182C141.913 3.84604 141.861 3.92274 141.825 4.00742C141.79 4.09209 141.771 4.18304 141.771 4.27492C141.771 4.36679 141.79 4.45775 141.825 4.54244C141.861 4.62714 141.913 4.70387 141.979 4.76812C142.044 4.83237 142.122 4.88286 142.208 4.91661C142.293 4.95036 142.385 4.9667 142.476 4.96467C142.657 4.96069 142.828 4.88631 142.954 4.75746C143.08 4.62861 143.151 4.45552 143.151 4.27526C143.151 4.095 143.08 3.92188 142.954 3.79297C142.828 3.66406 142.657 3.58959 142.477 3.58552Z" fill="#00A8A6" stroke="#00A8A6" stroke-width="0.124"/>
</g>
<defs>
<clipPath id="clip0_2318_5508">
<rect width="11.408" height="11.408" fill="white" transform="translate(0.0410156 0.507812)"/>
</clipPath>
<clipPath id="clip1_2318_5508">
<rect width="10.044" height="10.044" fill="white" transform="translate(135.572 1.13477)"/>
</clipPath>
</defs>
</svg>
